<mxfile host="Electron" modified="2024-02-13T01:53:07.632Z" agent="Mozilla/5.0 (Windows NT 10.0; Win64; x64) AppleWebKit/537.36 (KHTML, like Gecko) draw.io/22.1.21 Chrome/120.0.6099.109 Electron/28.1.0 Safari/537.36" etag="LJCuZfKLx8E1KJmWwN3N" version="22.1.21" type="device">
  <diagram name="Page-1" id="btp2FHUVKv2wp8G3yKKz">
    <mxGraphModel dx="2736" dy="2000" grid="1" gridSize="10" guides="1" tooltips="1" connect="1" arrows="1" fold="1" page="1" pageScale="1" pageWidth="850" pageHeight="1100" math="0" shadow="0">
      <root>
        <mxCell id="0" />
        <mxCell id="1" parent="0" />
        <mxCell id="HmjeX0NrFTV2RBuzeUnH-74" value="" style="edgeStyle=none;orthogonalLoop=1;jettySize=auto;html=1;rounded=0;endArrow=none;endFill=0;" edge="1" parent="1">
          <mxGeometry width="100" relative="1" as="geometry">
            <mxPoint x="-196.00000000000003" y="524" as="sourcePoint" />
            <mxPoint x="-196.00000000000003" y="484" as="targetPoint" />
            <Array as="points" />
          </mxGeometry>
        </mxCell>
        <mxCell id="_-1uG-47PIhJoM_87xiy-3" value="XCOOR_int" style="rounded=0;whiteSpace=wrap;html=1;" parent="1" vertex="1">
          <mxGeometry x="320" y="80" width="180" height="110" as="geometry" />
        </mxCell>
        <mxCell id="_-1uG-47PIhJoM_87xiy-4" value="" style="triangle;whiteSpace=wrap;html=1;" parent="1" vertex="1">
          <mxGeometry x="320" y="170" width="10" height="20" as="geometry" />
        </mxCell>
        <mxCell id="_-1uG-47PIhJoM_87xiy-5" value="" style="edgeStyle=none;orthogonalLoop=1;jettySize=auto;html=1;rounded=0;" parent="1" edge="1">
          <mxGeometry width="100" relative="1" as="geometry">
            <mxPoint x="270" y="100" as="sourcePoint" />
            <mxPoint x="320" y="100" as="targetPoint" />
            <Array as="points" />
          </mxGeometry>
        </mxCell>
        <mxCell id="_-1uG-47PIhJoM_87xiy-6" value="" style="edgeStyle=none;orthogonalLoop=1;jettySize=auto;html=1;rounded=0;" parent="1" edge="1">
          <mxGeometry width="100" relative="1" as="geometry">
            <mxPoint x="270" y="125" as="sourcePoint" />
            <mxPoint x="320" y="124.5" as="targetPoint" />
            <Array as="points" />
          </mxGeometry>
        </mxCell>
        <mxCell id="_-1uG-47PIhJoM_87xiy-7" value="LD_COORDS_int" style="text;html=1;align=center;verticalAlign=middle;resizable=0;points=[];autosize=1;strokeColor=none;fillColor=none;" parent="1" vertex="1">
          <mxGeometry x="160" y="110" width="120" height="30" as="geometry" />
        </mxCell>
        <mxCell id="_-1uG-47PIhJoM_87xiy-8" value="IN_XCOOR_int" style="text;html=1;align=right;verticalAlign=middle;resizable=0;points=[];autosize=1;strokeColor=none;fillColor=none;" parent="1" vertex="1">
          <mxGeometry x="150" y="80" width="110" height="30" as="geometry" />
        </mxCell>
        <mxCell id="_-1uG-47PIhJoM_87xiy-12" style="edgeStyle=orthogonalEdgeStyle;rounded=0;orthogonalLoop=1;jettySize=auto;html=1;exitX=1;exitY=0.25;exitDx=0;exitDy=0;" parent="1" source="_-1uG-47PIhJoM_87xiy-9" edge="1">
          <mxGeometry relative="1" as="geometry">
            <mxPoint x="140" y="95" as="targetPoint" />
          </mxGeometry>
        </mxCell>
        <mxCell id="_-1uG-47PIhJoM_87xiy-9" value="+" style="rounded=0;whiteSpace=wrap;html=1;" parent="1" vertex="1">
          <mxGeometry x="20" y="80" width="70" height="60" as="geometry" />
        </mxCell>
        <mxCell id="_-1uG-47PIhJoM_87xiy-10" value="" style="edgeStyle=none;orthogonalLoop=1;jettySize=auto;html=1;rounded=0;" parent="1" edge="1">
          <mxGeometry width="100" relative="1" as="geometry">
            <mxPoint x="-20" y="160" as="sourcePoint" />
            <mxPoint x="20" y="130" as="targetPoint" />
            <Array as="points">
              <mxPoint x="-20" y="130" />
            </Array>
          </mxGeometry>
        </mxCell>
        <mxCell id="_-1uG-47PIhJoM_87xiy-11" value="OFFSET_X" style="text;html=1;align=center;verticalAlign=middle;resizable=0;points=[];autosize=1;strokeColor=none;fillColor=none;" parent="1" vertex="1">
          <mxGeometry x="-60" y="160" width="90" height="30" as="geometry" />
        </mxCell>
        <mxCell id="_-1uG-47PIhJoM_87xiy-14" style="edgeStyle=orthogonalEdgeStyle;rounded=0;orthogonalLoop=1;jettySize=auto;html=1;entryX=0;entryY=0.25;entryDx=0;entryDy=0;" parent="1" source="_-1uG-47PIhJoM_87xiy-13" target="_-1uG-47PIhJoM_87xiy-9" edge="1">
          <mxGeometry relative="1" as="geometry" />
        </mxCell>
        <mxCell id="_-1uG-47PIhJoM_87xiy-13" value="*" style="rounded=0;whiteSpace=wrap;html=1;" parent="1" vertex="1">
          <mxGeometry x="-230" y="80" width="70" height="60" as="geometry" />
        </mxCell>
        <mxCell id="_-1uG-47PIhJoM_87xiy-15" value="" style="edgeStyle=none;orthogonalLoop=1;jettySize=auto;html=1;rounded=0;" parent="1" edge="1">
          <mxGeometry width="100" relative="1" as="geometry">
            <mxPoint x="-70" y="100" as="sourcePoint" />
            <mxPoint x="-70" y="50" as="targetPoint" />
            <Array as="points" />
          </mxGeometry>
        </mxCell>
        <mxCell id="_-1uG-47PIhJoM_87xiy-16" value="/" style="text;html=1;align=center;verticalAlign=middle;resizable=0;points=[];autosize=1;strokeColor=none;fillColor=none;" parent="1" vertex="1">
          <mxGeometry x="-145" y="95" width="30" height="30" as="geometry" />
        </mxCell>
        <mxCell id="_-1uG-47PIhJoM_87xiy-18" value="9" style="text;html=1;align=center;verticalAlign=middle;resizable=0;points=[];autosize=1;strokeColor=none;fillColor=none;" parent="1" vertex="1">
          <mxGeometry x="-145" y="80" width="30" height="30" as="geometry" />
        </mxCell>
        <mxCell id="_-1uG-47PIhJoM_87xiy-19" value="" style="edgeStyle=none;orthogonalLoop=1;jettySize=auto;html=1;rounded=0;" parent="1" edge="1">
          <mxGeometry width="100" relative="1" as="geometry">
            <mxPoint x="-280" y="95" as="sourcePoint" />
            <mxPoint x="-230" y="95" as="targetPoint" />
            <Array as="points" />
          </mxGeometry>
        </mxCell>
        <mxCell id="_-1uG-47PIhJoM_87xiy-20" value="" style="edgeStyle=none;orthogonalLoop=1;jettySize=auto;html=1;rounded=0;" parent="1" edge="1">
          <mxGeometry width="100" relative="1" as="geometry">
            <mxPoint x="-280" y="127.5" as="sourcePoint" />
            <mxPoint x="-230" y="127.5" as="targetPoint" />
            <Array as="points" />
          </mxGeometry>
        </mxCell>
        <mxCell id="_-1uG-47PIhJoM_87xiy-21" value="RCURSORX" style="text;html=1;align=center;verticalAlign=middle;resizable=0;points=[];autosize=1;strokeColor=none;fillColor=none;" parent="1" vertex="1">
          <mxGeometry x="-365" y="80" width="90" height="30" as="geometry" />
        </mxCell>
        <mxCell id="_-1uG-47PIhJoM_87xiy-22" value="17+4" style="text;html=1;align=center;verticalAlign=middle;resizable=0;points=[];autosize=1;strokeColor=none;fillColor=none;" parent="1" vertex="1">
          <mxGeometry x="-330" y="117.5" width="50" height="30" as="geometry" />
        </mxCell>
        <mxCell id="_-1uG-47PIhJoM_87xiy-23" value="/" style="text;html=1;align=center;verticalAlign=middle;resizable=0;points=[];autosize=1;strokeColor=none;fillColor=none;" parent="1" vertex="1">
          <mxGeometry x="-280" y="80" width="30" height="30" as="geometry" />
        </mxCell>
        <mxCell id="_-1uG-47PIhJoM_87xiy-24" value="4" style="text;html=1;align=center;verticalAlign=middle;resizable=0;points=[];autosize=1;strokeColor=none;fillColor=none;" parent="1" vertex="1">
          <mxGeometry x="-280" y="65" width="30" height="30" as="geometry" />
        </mxCell>
        <mxCell id="_-1uG-47PIhJoM_87xiy-25" value="/" style="text;html=1;align=center;verticalAlign=middle;resizable=0;points=[];autosize=1;strokeColor=none;fillColor=none;" parent="1" vertex="1">
          <mxGeometry x="-280" y="113" width="30" height="30" as="geometry" />
        </mxCell>
        <mxCell id="_-1uG-47PIhJoM_87xiy-26" value="5" style="text;html=1;align=center;verticalAlign=middle;resizable=0;points=[];autosize=1;strokeColor=none;fillColor=none;" parent="1" vertex="1">
          <mxGeometry x="-280" y="98" width="30" height="30" as="geometry" />
        </mxCell>
        <mxCell id="_-1uG-47PIhJoM_87xiy-27" value="Bit de mayor peso ignorado" style="text;html=1;align=center;verticalAlign=middle;resizable=0;points=[];autosize=1;strokeColor=none;fillColor=none;" parent="1" vertex="1">
          <mxGeometry x="-165" y="18" width="170" height="30" as="geometry" />
        </mxCell>
        <mxCell id="_-1uG-47PIhJoM_87xiy-28" value="" style="edgeStyle=none;orthogonalLoop=1;jettySize=auto;html=1;rounded=0;" parent="1" edge="1">
          <mxGeometry width="100" relative="1" as="geometry">
            <mxPoint x="500" y="98" as="sourcePoint" />
            <mxPoint x="550" y="98" as="targetPoint" />
            <Array as="points" />
          </mxGeometry>
        </mxCell>
        <mxCell id="_-1uG-47PIhJoM_87xiy-29" value="/" style="text;html=1;align=center;verticalAlign=middle;resizable=0;points=[];autosize=1;strokeColor=none;fillColor=none;" parent="1" vertex="1">
          <mxGeometry x="500" y="83" width="30" height="30" as="geometry" />
        </mxCell>
        <mxCell id="_-1uG-47PIhJoM_87xiy-30" value="8" style="text;html=1;align=center;verticalAlign=middle;resizable=0;points=[];autosize=1;strokeColor=none;fillColor=none;" parent="1" vertex="1">
          <mxGeometry x="500" y="68" width="30" height="30" as="geometry" />
        </mxCell>
        <mxCell id="_-1uG-47PIhJoM_87xiy-31" value="" style="edgeStyle=none;orthogonalLoop=1;jettySize=auto;html=1;rounded=0;" parent="1" edge="1">
          <mxGeometry width="100" relative="1" as="geometry">
            <mxPoint x="280" y="210" as="sourcePoint" />
            <mxPoint x="320" y="180" as="targetPoint" />
            <Array as="points">
              <mxPoint x="280" y="180" />
            </Array>
          </mxGeometry>
        </mxCell>
        <mxCell id="_-1uG-47PIhJoM_87xiy-32" value="RAM&lt;br&gt;&lt;br&gt;Mapa" style="rounded=0;whiteSpace=wrap;html=1;" parent="1" vertex="1">
          <mxGeometry x="110" y="371" width="90" height="138" as="geometry" />
        </mxCell>
        <mxCell id="_-1uG-47PIhJoM_87xiy-34" value="" style="edgeStyle=none;orthogonalLoop=1;jettySize=auto;html=1;rounded=0;" parent="1" edge="1">
          <mxGeometry width="100" relative="1" as="geometry">
            <mxPoint x="50" y="389" as="sourcePoint" />
            <mxPoint x="110" y="389" as="targetPoint" />
            <Array as="points" />
          </mxGeometry>
        </mxCell>
        <mxCell id="_-1uG-47PIhJoM_87xiy-35" value="" style="edgeStyle=none;orthogonalLoop=1;jettySize=auto;html=1;rounded=0;" parent="1" edge="1">
          <mxGeometry width="100" relative="1" as="geometry">
            <mxPoint x="50" y="415.74" as="sourcePoint" />
            <mxPoint x="110" y="415.74" as="targetPoint" />
            <Array as="points" />
          </mxGeometry>
        </mxCell>
        <mxCell id="_-1uG-47PIhJoM_87xiy-36" value="MUX_dir" style="text;html=1;align=right;verticalAlign=middle;resizable=0;points=[];autosize=1;strokeColor=none;fillColor=none;" parent="1" vertex="1">
          <mxGeometry x="-32" y="371" width="70" height="30" as="geometry" />
        </mxCell>
        <mxCell id="_-1uG-47PIhJoM_87xiy-37" value="data_in" style="text;html=1;align=right;verticalAlign=middle;resizable=0;points=[];autosize=1;strokeColor=none;fillColor=none;" parent="1" vertex="1">
          <mxGeometry x="-22" y="401" width="60" height="30" as="geometry" />
        </mxCell>
        <mxCell id="_-1uG-47PIhJoM_87xiy-38" value="/" style="text;html=1;align=center;verticalAlign=middle;resizable=0;points=[];autosize=1;strokeColor=none;fillColor=none;" parent="1" vertex="1">
          <mxGeometry x="-55" y="80" width="30" height="30" as="geometry" />
        </mxCell>
        <mxCell id="_-1uG-47PIhJoM_87xiy-39" value="8" style="text;html=1;align=center;verticalAlign=middle;resizable=0;points=[];autosize=1;strokeColor=none;fillColor=none;" parent="1" vertex="1">
          <mxGeometry x="-55" y="65" width="30" height="30" as="geometry" />
        </mxCell>
        <mxCell id="_-1uG-47PIhJoM_87xiy-40" value="/" style="text;html=1;align=center;verticalAlign=middle;resizable=0;points=[];autosize=1;strokeColor=none;fillColor=none;" parent="1" vertex="1">
          <mxGeometry x="-22" y="115" width="30" height="30" as="geometry" />
        </mxCell>
        <mxCell id="_-1uG-47PIhJoM_87xiy-41" value="8" style="text;html=1;align=center;verticalAlign=middle;resizable=0;points=[];autosize=1;strokeColor=none;fillColor=none;" parent="1" vertex="1">
          <mxGeometry x="-22" y="100" width="30" height="30" as="geometry" />
        </mxCell>
        <mxCell id="_-1uG-47PIhJoM_87xiy-42" value="/" style="text;html=1;align=center;verticalAlign=middle;resizable=0;points=[];autosize=1;strokeColor=none;fillColor=none;fontStyle=1" parent="1" vertex="1">
          <mxGeometry x="57" y="375" width="30" height="30" as="geometry" />
        </mxCell>
        <mxCell id="_-1uG-47PIhJoM_87xiy-43" value="7" style="text;html=1;align=center;verticalAlign=middle;resizable=0;points=[];autosize=1;strokeColor=none;fillColor=none;" parent="1" vertex="1">
          <mxGeometry x="57" y="360" width="30" height="30" as="geometry" />
        </mxCell>
        <mxCell id="_-1uG-47PIhJoM_87xiy-44" value="" style="edgeStyle=none;orthogonalLoop=1;jettySize=auto;html=1;rounded=0;" parent="1" edge="1">
          <mxGeometry width="100" relative="1" as="geometry">
            <mxPoint x="50" y="450.74" as="sourcePoint" />
            <mxPoint x="110" y="450.74" as="targetPoint" />
            <Array as="points" />
          </mxGeometry>
        </mxCell>
        <mxCell id="_-1uG-47PIhJoM_87xiy-45" value="WR" style="text;html=1;align=right;verticalAlign=middle;resizable=0;points=[];autosize=1;strokeColor=none;fillColor=none;" parent="1" vertex="1">
          <mxGeometry x="-2" y="436" width="40" height="30" as="geometry" />
        </mxCell>
        <mxCell id="_-1uG-47PIhJoM_87xiy-46" value="" style="edgeStyle=none;orthogonalLoop=1;jettySize=auto;html=1;rounded=0;" parent="1" edge="1">
          <mxGeometry width="100" relative="1" as="geometry">
            <mxPoint x="50" y="480.74" as="sourcePoint" />
            <mxPoint x="110" y="480.74" as="targetPoint" />
            <Array as="points" />
          </mxGeometry>
        </mxCell>
        <mxCell id="_-1uG-47PIhJoM_87xiy-47" value="RD" style="text;html=1;align=right;verticalAlign=middle;resizable=0;points=[];autosize=1;strokeColor=none;fillColor=none;" parent="1" vertex="1">
          <mxGeometry x="-2" y="466" width="40" height="30" as="geometry" />
        </mxCell>
        <mxCell id="_-1uG-47PIhJoM_87xiy-49" value="" style="edgeStyle=none;orthogonalLoop=1;jettySize=auto;html=1;rounded=0;" parent="1" edge="1">
          <mxGeometry width="100" relative="1" as="geometry">
            <mxPoint x="200" y="389" as="sourcePoint" />
            <mxPoint x="240" y="389" as="targetPoint" />
            <Array as="points" />
          </mxGeometry>
        </mxCell>
        <mxCell id="_-1uG-47PIhJoM_87xiy-50" value="data_out" style="text;html=1;align=left;verticalAlign=middle;resizable=0;points=[];autosize=1;strokeColor=none;fillColor=none;" parent="1" vertex="1">
          <mxGeometry x="245" y="371" width="70" height="30" as="geometry" />
        </mxCell>
        <mxCell id="_-1uG-47PIhJoM_87xiy-52" value="clk" style="text;html=1;align=center;verticalAlign=middle;resizable=0;points=[];autosize=1;strokeColor=none;fillColor=none;" parent="1" vertex="1">
          <mxGeometry x="244" y="180" width="40" height="30" as="geometry" />
        </mxCell>
        <mxCell id="_-1uG-47PIhJoM_87xiy-53" value="" style="triangle;whiteSpace=wrap;html=1;" parent="1" vertex="1">
          <mxGeometry x="110" y="489" width="10" height="20" as="geometry" />
        </mxCell>
        <mxCell id="_-1uG-47PIhJoM_87xiy-54" value="" style="edgeStyle=none;orthogonalLoop=1;jettySize=auto;html=1;rounded=0;entryX=0;entryY=0.5;entryDx=0;entryDy=0;" parent="1" target="_-1uG-47PIhJoM_87xiy-53" edge="1">
          <mxGeometry width="100" relative="1" as="geometry">
            <mxPoint x="66" y="529" as="sourcePoint" />
            <mxPoint x="106" y="499" as="targetPoint" />
            <Array as="points">
              <mxPoint x="66" y="499" />
            </Array>
          </mxGeometry>
        </mxCell>
        <mxCell id="_-1uG-47PIhJoM_87xiy-55" value="clk" style="text;html=1;align=center;verticalAlign=middle;resizable=0;points=[];autosize=1;strokeColor=none;fillColor=none;" parent="1" vertex="1">
          <mxGeometry x="30" y="499" width="40" height="30" as="geometry" />
        </mxCell>
        <mxCell id="_-1uG-47PIhJoM_87xiy-56" value="YCOOR_int" style="rounded=0;whiteSpace=wrap;html=1;" parent="1" vertex="1">
          <mxGeometry x="300" y="-178" width="180" height="110" as="geometry" />
        </mxCell>
        <mxCell id="_-1uG-47PIhJoM_87xiy-57" value="" style="triangle;whiteSpace=wrap;html=1;" parent="1" vertex="1">
          <mxGeometry x="300" y="-88" width="10" height="20" as="geometry" />
        </mxCell>
        <mxCell id="_-1uG-47PIhJoM_87xiy-58" value="" style="edgeStyle=none;orthogonalLoop=1;jettySize=auto;html=1;rounded=0;" parent="1" edge="1">
          <mxGeometry width="100" relative="1" as="geometry">
            <mxPoint x="250" y="-158" as="sourcePoint" />
            <mxPoint x="300" y="-158" as="targetPoint" />
            <Array as="points" />
          </mxGeometry>
        </mxCell>
        <mxCell id="_-1uG-47PIhJoM_87xiy-59" value="" style="edgeStyle=none;orthogonalLoop=1;jettySize=auto;html=1;rounded=0;" parent="1" edge="1">
          <mxGeometry width="100" relative="1" as="geometry">
            <mxPoint x="250" y="-133" as="sourcePoint" />
            <mxPoint x="300" y="-133.5" as="targetPoint" />
            <Array as="points" />
          </mxGeometry>
        </mxCell>
        <mxCell id="_-1uG-47PIhJoM_87xiy-60" value="LD_COORDS_int" style="text;html=1;align=center;verticalAlign=middle;resizable=0;points=[];autosize=1;strokeColor=none;fillColor=none;" parent="1" vertex="1">
          <mxGeometry x="140" y="-148" width="120" height="30" as="geometry" />
        </mxCell>
        <mxCell id="_-1uG-47PIhJoM_87xiy-61" value="IN_YCOOR_int" style="text;html=1;align=right;verticalAlign=middle;resizable=0;points=[];autosize=1;strokeColor=none;fillColor=none;" parent="1" vertex="1">
          <mxGeometry x="130" y="-175" width="110" height="30" as="geometry" />
        </mxCell>
        <mxCell id="_-1uG-47PIhJoM_87xiy-62" style="edgeStyle=orthogonalEdgeStyle;rounded=0;orthogonalLoop=1;jettySize=auto;html=1;exitX=1;exitY=0.25;exitDx=0;exitDy=0;" parent="1" source="_-1uG-47PIhJoM_87xiy-63" edge="1">
          <mxGeometry relative="1" as="geometry">
            <mxPoint x="120" y="-163" as="targetPoint" />
          </mxGeometry>
        </mxCell>
        <mxCell id="_-1uG-47PIhJoM_87xiy-63" value="+" style="rounded=0;whiteSpace=wrap;html=1;" parent="1" vertex="1">
          <mxGeometry y="-178" width="70" height="60" as="geometry" />
        </mxCell>
        <mxCell id="_-1uG-47PIhJoM_87xiy-64" value="" style="edgeStyle=none;orthogonalLoop=1;jettySize=auto;html=1;rounded=0;" parent="1" edge="1">
          <mxGeometry width="100" relative="1" as="geometry">
            <mxPoint x="-40" y="-98" as="sourcePoint" />
            <mxPoint y="-128" as="targetPoint" />
            <Array as="points">
              <mxPoint x="-40" y="-128" />
            </Array>
          </mxGeometry>
        </mxCell>
        <mxCell id="_-1uG-47PIhJoM_87xiy-65" value="OFFSET_Y" style="text;html=1;align=center;verticalAlign=middle;resizable=0;points=[];autosize=1;strokeColor=none;fillColor=none;" parent="1" vertex="1">
          <mxGeometry x="-80" y="-98" width="90" height="30" as="geometry" />
        </mxCell>
        <mxCell id="_-1uG-47PIhJoM_87xiy-66" style="edgeStyle=orthogonalEdgeStyle;rounded=0;orthogonalLoop=1;jettySize=auto;html=1;entryX=0;entryY=0.25;entryDx=0;entryDy=0;" parent="1" source="_-1uG-47PIhJoM_87xiy-67" target="_-1uG-47PIhJoM_87xiy-63" edge="1">
          <mxGeometry relative="1" as="geometry" />
        </mxCell>
        <mxCell id="_-1uG-47PIhJoM_87xiy-67" value="*" style="rounded=0;whiteSpace=wrap;html=1;" parent="1" vertex="1">
          <mxGeometry x="-250" y="-178" width="70" height="60" as="geometry" />
        </mxCell>
        <mxCell id="_-1uG-47PIhJoM_87xiy-69" value="/" style="text;html=1;align=center;verticalAlign=middle;resizable=0;points=[];autosize=1;strokeColor=none;fillColor=none;" parent="1" vertex="1">
          <mxGeometry x="-165" y="-163" width="30" height="30" as="geometry" />
        </mxCell>
        <mxCell id="_-1uG-47PIhJoM_87xiy-70" value="9" style="text;html=1;align=center;verticalAlign=middle;resizable=0;points=[];autosize=1;strokeColor=none;fillColor=none;" parent="1" vertex="1">
          <mxGeometry x="-165" y="-178" width="30" height="30" as="geometry" />
        </mxCell>
        <mxCell id="_-1uG-47PIhJoM_87xiy-71" value="" style="edgeStyle=none;orthogonalLoop=1;jettySize=auto;html=1;rounded=0;" parent="1" edge="1">
          <mxGeometry width="100" relative="1" as="geometry">
            <mxPoint x="-300" y="-163" as="sourcePoint" />
            <mxPoint x="-250" y="-163" as="targetPoint" />
            <Array as="points" />
          </mxGeometry>
        </mxCell>
        <mxCell id="_-1uG-47PIhJoM_87xiy-72" value="" style="edgeStyle=none;orthogonalLoop=1;jettySize=auto;html=1;rounded=0;" parent="1" edge="1">
          <mxGeometry width="100" relative="1" as="geometry">
            <mxPoint x="-300" y="-130.5" as="sourcePoint" />
            <mxPoint x="-250" y="-130.5" as="targetPoint" />
            <Array as="points" />
          </mxGeometry>
        </mxCell>
        <mxCell id="_-1uG-47PIhJoM_87xiy-73" value="RCURSORY" style="text;html=1;align=center;verticalAlign=middle;resizable=0;points=[];autosize=1;strokeColor=none;fillColor=none;" parent="1" vertex="1">
          <mxGeometry x="-385" y="-178" width="90" height="30" as="geometry" />
        </mxCell>
        <mxCell id="_-1uG-47PIhJoM_87xiy-74" value="17+4" style="text;html=1;align=center;verticalAlign=middle;resizable=0;points=[];autosize=1;strokeColor=none;fillColor=none;" parent="1" vertex="1">
          <mxGeometry x="-350" y="-140.5" width="50" height="30" as="geometry" />
        </mxCell>
        <mxCell id="_-1uG-47PIhJoM_87xiy-75" value="/" style="text;html=1;align=center;verticalAlign=middle;resizable=0;points=[];autosize=1;strokeColor=none;fillColor=none;" parent="1" vertex="1">
          <mxGeometry x="-300" y="-178" width="30" height="30" as="geometry" />
        </mxCell>
        <mxCell id="_-1uG-47PIhJoM_87xiy-76" value="4" style="text;html=1;align=center;verticalAlign=middle;resizable=0;points=[];autosize=1;strokeColor=none;fillColor=none;" parent="1" vertex="1">
          <mxGeometry x="-300" y="-193" width="30" height="30" as="geometry" />
        </mxCell>
        <mxCell id="_-1uG-47PIhJoM_87xiy-77" value="/" style="text;html=1;align=center;verticalAlign=middle;resizable=0;points=[];autosize=1;strokeColor=none;fillColor=none;" parent="1" vertex="1">
          <mxGeometry x="-300" y="-145" width="30" height="30" as="geometry" />
        </mxCell>
        <mxCell id="_-1uG-47PIhJoM_87xiy-78" value="5" style="text;html=1;align=center;verticalAlign=middle;resizable=0;points=[];autosize=1;strokeColor=none;fillColor=none;" parent="1" vertex="1">
          <mxGeometry x="-300" y="-160" width="30" height="30" as="geometry" />
        </mxCell>
        <mxCell id="_-1uG-47PIhJoM_87xiy-80" value="" style="edgeStyle=none;orthogonalLoop=1;jettySize=auto;html=1;rounded=0;" parent="1" edge="1">
          <mxGeometry width="100" relative="1" as="geometry">
            <mxPoint x="480" y="-160" as="sourcePoint" />
            <mxPoint x="530" y="-160" as="targetPoint" />
            <Array as="points" />
          </mxGeometry>
        </mxCell>
        <mxCell id="_-1uG-47PIhJoM_87xiy-81" value="/" style="text;html=1;align=center;verticalAlign=middle;resizable=0;points=[];autosize=1;strokeColor=none;fillColor=none;" parent="1" vertex="1">
          <mxGeometry x="480" y="-175" width="30" height="30" as="geometry" />
        </mxCell>
        <mxCell id="_-1uG-47PIhJoM_87xiy-82" value="9" style="text;html=1;align=center;verticalAlign=middle;resizable=0;points=[];autosize=1;strokeColor=none;fillColor=none;" parent="1" vertex="1">
          <mxGeometry x="480" y="-190" width="30" height="30" as="geometry" />
        </mxCell>
        <mxCell id="_-1uG-47PIhJoM_87xiy-83" value="" style="edgeStyle=none;orthogonalLoop=1;jettySize=auto;html=1;rounded=0;" parent="1" edge="1">
          <mxGeometry width="100" relative="1" as="geometry">
            <mxPoint x="260" y="-48" as="sourcePoint" />
            <mxPoint x="300" y="-78" as="targetPoint" />
            <Array as="points">
              <mxPoint x="260" y="-78" />
            </Array>
          </mxGeometry>
        </mxCell>
        <mxCell id="_-1uG-47PIhJoM_87xiy-84" value="/" style="text;html=1;align=center;verticalAlign=middle;resizable=0;points=[];autosize=1;strokeColor=none;fillColor=none;" parent="1" vertex="1">
          <mxGeometry x="-75" y="-178" width="30" height="30" as="geometry" />
        </mxCell>
        <mxCell id="_-1uG-47PIhJoM_87xiy-85" value="9" style="text;html=1;align=center;verticalAlign=middle;resizable=0;points=[];autosize=1;strokeColor=none;fillColor=none;" parent="1" vertex="1">
          <mxGeometry x="-75" y="-193" width="30" height="30" as="geometry" />
        </mxCell>
        <mxCell id="_-1uG-47PIhJoM_87xiy-86" value="/" style="text;html=1;align=center;verticalAlign=middle;resizable=0;points=[];autosize=1;strokeColor=none;fillColor=none;" parent="1" vertex="1">
          <mxGeometry x="-42" y="-143" width="30" height="30" as="geometry" />
        </mxCell>
        <mxCell id="_-1uG-47PIhJoM_87xiy-87" value="9" style="text;html=1;align=center;verticalAlign=middle;resizable=0;points=[];autosize=1;strokeColor=none;fillColor=none;" parent="1" vertex="1">
          <mxGeometry x="-42" y="-158" width="30" height="30" as="geometry" />
        </mxCell>
        <mxCell id="_-1uG-47PIhJoM_87xiy-88" value="clk" style="text;html=1;align=center;verticalAlign=middle;resizable=0;points=[];autosize=1;strokeColor=none;fillColor=none;" parent="1" vertex="1">
          <mxGeometry x="224" y="-78" width="40" height="30" as="geometry" />
        </mxCell>
        <mxCell id="_-1uG-47PIhJoM_87xiy-89" value="/" style="text;html=1;align=center;verticalAlign=middle;resizable=0;points=[];autosize=1;strokeColor=none;fillColor=none;" parent="1" vertex="1">
          <mxGeometry x="74" y="-178" width="30" height="30" as="geometry" />
        </mxCell>
        <mxCell id="_-1uG-47PIhJoM_87xiy-90" value="9" style="text;html=1;align=center;verticalAlign=middle;resizable=0;points=[];autosize=1;strokeColor=none;fillColor=none;" parent="1" vertex="1">
          <mxGeometry x="74" y="-193" width="30" height="30" as="geometry" />
        </mxCell>
        <mxCell id="_-1uG-47PIhJoM_87xiy-91" value="/" style="text;html=1;align=center;verticalAlign=middle;resizable=0;points=[];autosize=1;strokeColor=none;fillColor=none;" parent="1" vertex="1">
          <mxGeometry x="88" y="80" width="30" height="30" as="geometry" />
        </mxCell>
        <mxCell id="_-1uG-47PIhJoM_87xiy-92" value="8" style="text;html=1;align=center;verticalAlign=middle;resizable=0;points=[];autosize=1;strokeColor=none;fillColor=none;" parent="1" vertex="1">
          <mxGeometry x="88" y="65" width="30" height="30" as="geometry" />
        </mxCell>
        <mxCell id="_-1uG-47PIhJoM_87xiy-105" style="edgeStyle=orthogonalEdgeStyle;rounded=0;orthogonalLoop=1;jettySize=auto;html=1;entryX=-0.033;entryY=0.326;entryDx=0;entryDy=0;entryPerimeter=0;" parent="1" source="_-1uG-47PIhJoM_87xiy-93" target="_-1uG-47PIhJoM_87xiy-94" edge="1">
          <mxGeometry relative="1" as="geometry">
            <mxPoint x="-140" y="279.9999999999998" as="targetPoint" />
          </mxGeometry>
        </mxCell>
        <mxCell id="_-1uG-47PIhJoM_87xiy-93" value="*" style="rounded=0;whiteSpace=wrap;html=1;" parent="1" vertex="1">
          <mxGeometry x="-235" y="250" width="70" height="60" as="geometry" />
        </mxCell>
        <mxCell id="_-1uG-47PIhJoM_87xiy-94" value="+" style="rounded=0;whiteSpace=wrap;html=1;" parent="1" vertex="1">
          <mxGeometry x="-82" y="260.5" width="70" height="60" as="geometry" />
        </mxCell>
        <mxCell id="_-1uG-47PIhJoM_87xiy-95" value="" style="edgeStyle=none;orthogonalLoop=1;jettySize=auto;html=1;rounded=0;" parent="1" edge="1">
          <mxGeometry width="100" relative="1" as="geometry">
            <mxPoint x="-285" y="290" as="sourcePoint" />
            <mxPoint x="-235" y="290" as="targetPoint" />
            <Array as="points" />
          </mxGeometry>
        </mxCell>
        <mxCell id="_-1uG-47PIhJoM_87xiy-96" value="10" style="text;html=1;align=center;verticalAlign=middle;resizable=0;points=[];autosize=1;strokeColor=none;fillColor=none;" parent="1" vertex="1">
          <mxGeometry x="-325" y="275.5" width="40" height="30" as="geometry" />
        </mxCell>
        <mxCell id="_-1uG-47PIhJoM_87xiy-97" value="/" style="text;html=1;align=center;verticalAlign=middle;resizable=0;points=[];autosize=1;strokeColor=none;fillColor=none;" parent="1" vertex="1">
          <mxGeometry x="-285" y="275.5" width="30" height="30" as="geometry" />
        </mxCell>
        <mxCell id="_-1uG-47PIhJoM_87xiy-98" value="4" style="text;html=1;align=center;verticalAlign=middle;resizable=0;points=[];autosize=1;strokeColor=none;fillColor=none;" parent="1" vertex="1">
          <mxGeometry x="-285" y="260.5" width="30" height="30" as="geometry" />
        </mxCell>
        <mxCell id="_-1uG-47PIhJoM_87xiy-102" value="" style="edgeStyle=none;orthogonalLoop=1;jettySize=auto;html=1;rounded=0;" parent="1" edge="1">
          <mxGeometry width="100" relative="1" as="geometry">
            <mxPoint x="-285" y="260.5" as="sourcePoint" />
            <mxPoint x="-235" y="260.5" as="targetPoint" />
            <Array as="points" />
          </mxGeometry>
        </mxCell>
        <mxCell id="_-1uG-47PIhJoM_87xiy-103" value="/" style="text;html=1;align=center;verticalAlign=middle;resizable=0;points=[];autosize=1;strokeColor=none;fillColor=none;" parent="1" vertex="1">
          <mxGeometry x="-285" y="245.5" width="30" height="30" as="geometry" />
        </mxCell>
        <mxCell id="_-1uG-47PIhJoM_87xiy-104" value="4" style="text;html=1;align=center;verticalAlign=middle;resizable=0;points=[];autosize=1;strokeColor=none;fillColor=none;" parent="1" vertex="1">
          <mxGeometry x="-285" y="230.5" width="30" height="30" as="geometry" />
        </mxCell>
        <mxCell id="_-1uG-47PIhJoM_87xiy-106" value="RCURSORY" style="text;html=1;align=center;verticalAlign=middle;resizable=0;points=[];autosize=1;strokeColor=none;fillColor=none;" parent="1" vertex="1">
          <mxGeometry x="-370" y="245.5" width="90" height="30" as="geometry" />
        </mxCell>
        <mxCell id="_-1uG-47PIhJoM_87xiy-107" value="" style="edgeStyle=none;orthogonalLoop=1;jettySize=auto;html=1;rounded=0;" parent="1" edge="1">
          <mxGeometry width="100" relative="1" as="geometry">
            <mxPoint x="-120" y="341" as="sourcePoint" />
            <mxPoint x="-80" y="311" as="targetPoint" />
            <Array as="points">
              <mxPoint x="-120" y="311" />
            </Array>
          </mxGeometry>
        </mxCell>
        <mxCell id="_-1uG-47PIhJoM_87xiy-108" value="0000&amp;amp;RCURSORX" style="text;html=1;align=center;verticalAlign=middle;resizable=0;points=[];autosize=1;strokeColor=none;fillColor=none;" parent="1" vertex="1">
          <mxGeometry x="-180" y="341" width="130" height="30" as="geometry" />
        </mxCell>
        <mxCell id="_-1uG-47PIhJoM_87xiy-109" value="/" style="text;html=1;align=center;verticalAlign=middle;resizable=0;points=[];autosize=1;strokeColor=none;fillColor=none;" parent="1" vertex="1">
          <mxGeometry x="-122" y="296" width="30" height="30" as="geometry" />
        </mxCell>
        <mxCell id="_-1uG-47PIhJoM_87xiy-110" value="8" style="text;html=1;align=center;verticalAlign=middle;resizable=0;points=[];autosize=1;strokeColor=none;fillColor=none;" parent="1" vertex="1">
          <mxGeometry x="-122" y="281" width="30" height="30" as="geometry" />
        </mxCell>
        <mxCell id="_-1uG-47PIhJoM_87xiy-113" value="/" style="text;html=1;align=center;verticalAlign=middle;resizable=0;points=[];autosize=1;strokeColor=none;fillColor=none;" parent="1" vertex="1">
          <mxGeometry x="-165" y="265" width="30" height="30" as="geometry" />
        </mxCell>
        <mxCell id="_-1uG-47PIhJoM_87xiy-114" value="8" style="text;html=1;align=center;verticalAlign=middle;resizable=0;points=[];autosize=1;strokeColor=none;fillColor=none;" parent="1" vertex="1">
          <mxGeometry x="-165" y="250" width="30" height="30" as="geometry" />
        </mxCell>
        <mxCell id="_-1uG-47PIhJoM_87xiy-116" style="edgeStyle=orthogonalEdgeStyle;rounded=0;orthogonalLoop=1;jettySize=auto;html=1;" parent="1" edge="1">
          <mxGeometry relative="1" as="geometry">
            <mxPoint x="40" y="280" as="targetPoint" />
            <mxPoint x="-12" y="280" as="sourcePoint" />
          </mxGeometry>
        </mxCell>
        <mxCell id="_-1uG-47PIhJoM_87xiy-117" value="/" style="text;html=1;align=center;verticalAlign=middle;resizable=0;points=[];autosize=1;strokeColor=none;fillColor=none;" parent="1" vertex="1">
          <mxGeometry x="-12" y="265" width="30" height="30" as="geometry" />
        </mxCell>
        <mxCell id="_-1uG-47PIhJoM_87xiy-118" value="7" style="text;html=1;align=center;verticalAlign=middle;resizable=0;points=[];autosize=1;strokeColor=none;fillColor=none;" parent="1" vertex="1">
          <mxGeometry x="-12" y="250" width="30" height="30" as="geometry" />
        </mxCell>
        <mxCell id="_-1uG-47PIhJoM_87xiy-119" value="dir" style="text;html=1;align=left;verticalAlign=middle;resizable=0;points=[];autosize=1;strokeColor=none;fillColor=none;" parent="1" vertex="1">
          <mxGeometry x="47" y="265" width="40" height="30" as="geometry" />
        </mxCell>
        <mxCell id="HmjeX0NrFTV2RBuzeUnH-1" value="NONO_GRAPHICS_cursor" style="whiteSpace=wrap;html=1;" vertex="1" parent="1">
          <mxGeometry x="-150" y="-580" width="200" height="210" as="geometry" />
        </mxCell>
        <mxCell id="HmjeX0NrFTV2RBuzeUnH-2" value="" style="triangle;whiteSpace=wrap;html=1;" vertex="1" parent="1">
          <mxGeometry x="-150" y="-390" width="20" height="20" as="geometry" />
        </mxCell>
        <mxCell id="HmjeX0NrFTV2RBuzeUnH-3" value="" style="edgeStyle=none;orthogonalLoop=1;jettySize=auto;html=1;rounded=0;endArrow=none;endFill=0;" edge="1" parent="1">
          <mxGeometry width="100" relative="1" as="geometry">
            <mxPoint x="-170" y="-345" as="sourcePoint" />
            <mxPoint x="-150" y="-380.29" as="targetPoint" />
            <Array as="points">
              <mxPoint x="-170" y="-380" />
            </Array>
          </mxGeometry>
        </mxCell>
        <mxCell id="HmjeX0NrFTV2RBuzeUnH-4" value="clk" style="text;html=1;align=center;verticalAlign=middle;resizable=0;points=[];autosize=1;strokeColor=none;fillColor=none;" vertex="1" parent="1">
          <mxGeometry x="-210" y="-375" width="40" height="30" as="geometry" />
        </mxCell>
        <mxCell id="HmjeX0NrFTV2RBuzeUnH-6" value="" style="edgeStyle=none;orthogonalLoop=1;jettySize=auto;html=1;rounded=0;" edge="1" parent="1">
          <mxGeometry width="100" relative="1" as="geometry">
            <mxPoint x="50" y="-559" as="sourcePoint" />
            <mxPoint x="100" y="-559" as="targetPoint" />
            <Array as="points" />
          </mxGeometry>
        </mxCell>
        <mxCell id="HmjeX0NrFTV2RBuzeUnH-9" value="" style="edgeStyle=none;orthogonalLoop=1;jettySize=auto;html=1;rounded=0;" edge="1" parent="1">
          <mxGeometry width="100" relative="1" as="geometry">
            <mxPoint x="50" y="-531" as="sourcePoint" />
            <mxPoint x="100" y="-531" as="targetPoint" />
            <Array as="points" />
          </mxGeometry>
        </mxCell>
        <mxCell id="HmjeX0NrFTV2RBuzeUnH-10" value="" style="edgeStyle=none;orthogonalLoop=1;jettySize=auto;html=1;rounded=0;" edge="1" parent="1">
          <mxGeometry width="100" relative="1" as="geometry">
            <mxPoint x="50" y="-507.2" as="sourcePoint" />
            <mxPoint x="100" y="-507.2" as="targetPoint" />
            <Array as="points" />
          </mxGeometry>
        </mxCell>
        <mxCell id="HmjeX0NrFTV2RBuzeUnH-11" value="" style="edgeStyle=none;orthogonalLoop=1;jettySize=auto;html=1;rounded=0;" edge="1" parent="1">
          <mxGeometry width="100" relative="1" as="geometry">
            <mxPoint x="50" y="-484" as="sourcePoint" />
            <mxPoint x="100" y="-484" as="targetPoint" />
            <Array as="points" />
          </mxGeometry>
        </mxCell>
        <mxCell id="HmjeX0NrFTV2RBuzeUnH-12" value="" style="edgeStyle=none;orthogonalLoop=1;jettySize=auto;html=1;rounded=0;" edge="1" parent="1">
          <mxGeometry width="100" relative="1" as="geometry">
            <mxPoint x="50" y="-456" as="sourcePoint" />
            <mxPoint x="100" y="-456" as="targetPoint" />
            <Array as="points" />
          </mxGeometry>
        </mxCell>
        <mxCell id="HmjeX0NrFTV2RBuzeUnH-13" value="XCOOR_int" style="text;html=1;align=left;verticalAlign=middle;resizable=0;points=[];autosize=1;strokeColor=none;fillColor=none;" vertex="1" parent="1">
          <mxGeometry x="104" y="-575" width="90" height="30" as="geometry" />
        </mxCell>
        <mxCell id="HmjeX0NrFTV2RBuzeUnH-14" value="YCOOR_int" style="text;html=1;align=left;verticalAlign=middle;resizable=0;points=[];autosize=1;strokeColor=none;fillColor=none;" vertex="1" parent="1">
          <mxGeometry x="104" y="-545" width="90" height="30" as="geometry" />
        </mxCell>
        <mxCell id="HmjeX0NrFTV2RBuzeUnH-17" value="DRAW_CUAD_int" style="text;html=1;align=left;verticalAlign=middle;resizable=0;points=[];autosize=1;strokeColor=none;fillColor=none;" vertex="1" parent="1">
          <mxGeometry x="104" y="-522" width="120" height="30" as="geometry" />
        </mxCell>
        <mxCell id="HmjeX0NrFTV2RBuzeUnH-18" value="DONE_UPDATE" style="text;html=1;align=left;verticalAlign=middle;resizable=0;points=[];autosize=1;strokeColor=none;fillColor=none;" vertex="1" parent="1">
          <mxGeometry x="104" y="-470" width="110" height="30" as="geometry" />
        </mxCell>
        <mxCell id="HmjeX0NrFTV2RBuzeUnH-19" value="" style="edgeStyle=none;orthogonalLoop=1;jettySize=auto;html=1;rounded=0;" edge="1" parent="1">
          <mxGeometry width="100" relative="1" as="geometry">
            <mxPoint x="50" y="-431.2" as="sourcePoint" />
            <mxPoint x="100" y="-431.2" as="targetPoint" />
            <Array as="points" />
          </mxGeometry>
        </mxCell>
        <mxCell id="HmjeX0NrFTV2RBuzeUnH-20" value="DONE_TOGGLE" style="text;html=1;align=left;verticalAlign=middle;resizable=0;points=[];autosize=1;strokeColor=none;fillColor=none;" vertex="1" parent="1">
          <mxGeometry x="104" y="-445" width="110" height="30" as="geometry" />
        </mxCell>
        <mxCell id="HmjeX0NrFTV2RBuzeUnH-21" value="DRAW_TRIA_int" style="text;html=1;align=left;verticalAlign=middle;resizable=0;points=[];autosize=1;strokeColor=none;fillColor=none;" vertex="1" parent="1">
          <mxGeometry x="104" y="-500" width="110" height="30" as="geometry" />
        </mxCell>
        <mxCell id="HmjeX0NrFTV2RBuzeUnH-24" value="" style="edgeStyle=none;orthogonalLoop=1;jettySize=auto;html=1;rounded=0;" edge="1" parent="1">
          <mxGeometry width="100" relative="1" as="geometry">
            <mxPoint x="-200" y="-513.2" as="sourcePoint" />
            <mxPoint x="-150" y="-513.2" as="targetPoint" />
            <Array as="points" />
          </mxGeometry>
        </mxCell>
        <mxCell id="HmjeX0NrFTV2RBuzeUnH-25" value="" style="edgeStyle=none;orthogonalLoop=1;jettySize=auto;html=1;rounded=0;" edge="1" parent="1">
          <mxGeometry width="100" relative="1" as="geometry">
            <mxPoint x="-200" y="-485.2" as="sourcePoint" />
            <mxPoint x="-150" y="-485.2" as="targetPoint" />
            <Array as="points" />
          </mxGeometry>
        </mxCell>
        <mxCell id="HmjeX0NrFTV2RBuzeUnH-26" value="" style="edgeStyle=none;orthogonalLoop=1;jettySize=auto;html=1;rounded=0;" edge="1" parent="1">
          <mxGeometry width="100" relative="1" as="geometry">
            <mxPoint x="-200" y="-461.4" as="sourcePoint" />
            <mxPoint x="-150" y="-461.4" as="targetPoint" />
            <Array as="points" />
          </mxGeometry>
        </mxCell>
        <mxCell id="HmjeX0NrFTV2RBuzeUnH-27" value="UPDATE_CURSOR" style="text;html=1;align=right;verticalAlign=middle;resizable=0;points=[];autosize=1;strokeColor=none;fillColor=none;" vertex="1" parent="1">
          <mxGeometry x="-335" y="-530" width="130" height="30" as="geometry" />
        </mxCell>
        <mxCell id="HmjeX0NrFTV2RBuzeUnH-28" value="TOGGLE_CURSOR" style="text;html=1;align=right;verticalAlign=middle;resizable=0;points=[];autosize=1;strokeColor=none;fillColor=none;" vertex="1" parent="1">
          <mxGeometry x="-335" y="-504" width="130" height="30" as="geometry" />
        </mxCell>
        <mxCell id="HmjeX0NrFTV2RBuzeUnH-29" value="DONE_FIG" style="text;html=1;align=right;verticalAlign=middle;resizable=0;points=[];autosize=1;strokeColor=none;fillColor=none;" vertex="1" parent="1">
          <mxGeometry x="-285" y="-480" width="80" height="30" as="geometry" />
        </mxCell>
        <mxCell id="HmjeX0NrFTV2RBuzeUnH-35" value="/" style="text;html=1;align=center;verticalAlign=middle;resizable=0;points=[];autosize=1;strokeColor=none;fillColor=none;fontStyle=0;fontSize=16;" vertex="1" parent="1">
          <mxGeometry x="57" y="-575" width="30" height="30" as="geometry" />
        </mxCell>
        <mxCell id="HmjeX0NrFTV2RBuzeUnH-36" value="8" style="text;html=1;align=center;verticalAlign=middle;resizable=0;points=[];autosize=1;strokeColor=none;fillColor=none;" vertex="1" parent="1">
          <mxGeometry x="57" y="-590" width="30" height="30" as="geometry" />
        </mxCell>
        <mxCell id="HmjeX0NrFTV2RBuzeUnH-37" value="/" style="text;html=1;align=center;verticalAlign=middle;resizable=0;points=[];autosize=1;strokeColor=none;fillColor=none;fontStyle=0;fontSize=16;" vertex="1" parent="1">
          <mxGeometry x="57" y="-545" width="30" height="30" as="geometry" />
        </mxCell>
        <mxCell id="HmjeX0NrFTV2RBuzeUnH-38" value="9" style="text;html=1;align=center;verticalAlign=middle;resizable=0;points=[];autosize=1;strokeColor=none;fillColor=none;" vertex="1" parent="1">
          <mxGeometry x="57" y="-560" width="30" height="30" as="geometry" />
        </mxCell>
        <mxCell id="HmjeX0NrFTV2RBuzeUnH-39" value="CONT" style="whiteSpace=wrap;html=1;" vertex="1" parent="1">
          <mxGeometry x="435" y="313" width="120" height="60" as="geometry" />
        </mxCell>
        <mxCell id="HmjeX0NrFTV2RBuzeUnH-40" value="Contador 7 bits para ir mirando las direcciones de la RAM" style="text;html=1;align=center;verticalAlign=middle;resizable=0;points=[];autosize=1;strokeColor=none;fillColor=none;" vertex="1" parent="1">
          <mxGeometry x="330" y="281" width="330" height="30" as="geometry" />
        </mxCell>
        <mxCell id="HmjeX0NrFTV2RBuzeUnH-41" value="" style="edgeStyle=none;orthogonalLoop=1;jettySize=auto;html=1;rounded=0;" edge="1" parent="1">
          <mxGeometry width="100" relative="1" as="geometry">
            <mxPoint x="555" y="331.5" as="sourcePoint" />
            <mxPoint x="605" y="331.5" as="targetPoint" />
            <Array as="points" />
          </mxGeometry>
        </mxCell>
        <mxCell id="HmjeX0NrFTV2RBuzeUnH-42" value="/" style="text;html=1;align=center;verticalAlign=middle;resizable=0;points=[];autosize=1;strokeColor=none;fillColor=none;fontStyle=1" vertex="1" parent="1">
          <mxGeometry x="555" y="316.5" width="30" height="30" as="geometry" />
        </mxCell>
        <mxCell id="HmjeX0NrFTV2RBuzeUnH-43" value="7" style="text;html=1;align=center;verticalAlign=middle;resizable=0;points=[];autosize=1;strokeColor=none;fillColor=none;" vertex="1" parent="1">
          <mxGeometry x="555" y="301.5" width="30" height="30" as="geometry" />
        </mxCell>
        <mxCell id="HmjeX0NrFTV2RBuzeUnH-44" value="cont_dir" style="text;html=1;align=left;verticalAlign=middle;resizable=0;points=[];autosize=1;strokeColor=none;fillColor=none;" vertex="1" parent="1">
          <mxGeometry x="610" y="316.5" width="70" height="30" as="geometry" />
        </mxCell>
        <mxCell id="HmjeX0NrFTV2RBuzeUnH-45" value="" style="edgeStyle=none;orthogonalLoop=1;jettySize=auto;html=1;rounded=0;" edge="1" parent="1">
          <mxGeometry width="100" relative="1" as="geometry">
            <mxPoint x="555" y="363" as="sourcePoint" />
            <mxPoint x="605" y="363" as="targetPoint" />
            <Array as="points" />
          </mxGeometry>
        </mxCell>
        <mxCell id="HmjeX0NrFTV2RBuzeUnH-46" value="END_CONT" style="text;html=1;align=center;verticalAlign=middle;resizable=0;points=[];autosize=1;strokeColor=none;fillColor=none;" vertex="1" parent="1">
          <mxGeometry x="596" y="350" width="90" height="30" as="geometry" />
        </mxCell>
        <mxCell id="HmjeX0NrFTV2RBuzeUnH-47" value="" style="edgeStyle=none;orthogonalLoop=1;jettySize=auto;html=1;rounded=0;" edge="1" parent="1">
          <mxGeometry width="100" relative="1" as="geometry">
            <mxPoint x="385" y="325" as="sourcePoint" />
            <mxPoint x="435" y="325" as="targetPoint" />
            <Array as="points" />
          </mxGeometry>
        </mxCell>
        <mxCell id="HmjeX0NrFTV2RBuzeUnH-48" value="CLR_CONT" style="text;html=1;align=center;verticalAlign=middle;resizable=0;points=[];autosize=1;strokeColor=none;fillColor=none;" vertex="1" parent="1">
          <mxGeometry x="300" y="309" width="90" height="30" as="geometry" />
        </mxCell>
        <mxCell id="HmjeX0NrFTV2RBuzeUnH-49" value="" style="edgeStyle=none;orthogonalLoop=1;jettySize=auto;html=1;rounded=0;" edge="1" parent="1">
          <mxGeometry width="100" relative="1" as="geometry">
            <mxPoint x="385" y="348.5" as="sourcePoint" />
            <mxPoint x="435" y="348.5" as="targetPoint" />
            <Array as="points" />
          </mxGeometry>
        </mxCell>
        <mxCell id="HmjeX0NrFTV2RBuzeUnH-50" value="INCR_CONT" style="text;html=1;align=center;verticalAlign=middle;resizable=0;points=[];autosize=1;strokeColor=none;fillColor=none;" vertex="1" parent="1">
          <mxGeometry x="300" y="332.5" width="90" height="30" as="geometry" />
        </mxCell>
        <mxCell id="HmjeX0NrFTV2RBuzeUnH-51" value="" style="triangle;whiteSpace=wrap;html=1;" vertex="1" parent="1">
          <mxGeometry x="435" y="353" width="20" height="20" as="geometry" />
        </mxCell>
        <mxCell id="HmjeX0NrFTV2RBuzeUnH-52" value="" style="edgeStyle=none;orthogonalLoop=1;jettySize=auto;html=1;rounded=0;endArrow=none;endFill=0;" edge="1" parent="1">
          <mxGeometry width="100" relative="1" as="geometry">
            <mxPoint x="415" y="398" as="sourcePoint" />
            <mxPoint x="435" y="362.71" as="targetPoint" />
            <Array as="points">
              <mxPoint x="415" y="363" />
            </Array>
          </mxGeometry>
        </mxCell>
        <mxCell id="HmjeX0NrFTV2RBuzeUnH-53" value="clk" style="text;html=1;align=center;verticalAlign=middle;resizable=0;points=[];autosize=1;strokeColor=none;fillColor=none;" vertex="1" parent="1">
          <mxGeometry x="375" y="368" width="40" height="30" as="geometry" />
        </mxCell>
        <mxCell id="HmjeX0NrFTV2RBuzeUnH-54" style="edgeStyle=orthogonalEdgeStyle;rounded=0;orthogonalLoop=1;jettySize=auto;html=1;startArrow=none;startFill=0;endArrow=none;endFill=0;" edge="1" source="HmjeX0NrFTV2RBuzeUnH-55" parent="1">
          <mxGeometry relative="1" as="geometry">
            <mxPoint x="495" y="423" as="targetPoint" />
          </mxGeometry>
        </mxCell>
        <mxCell id="HmjeX0NrFTV2RBuzeUnH-55" value="" style="ellipse;whiteSpace=wrap;html=1;" vertex="1" parent="1">
          <mxGeometry x="490" y="373" width="10" height="10" as="geometry" />
        </mxCell>
        <mxCell id="HmjeX0NrFTV2RBuzeUnH-56" value="RESET_L*" style="text;html=1;align=center;verticalAlign=middle;resizable=0;points=[];autosize=1;strokeColor=none;fillColor=none;" vertex="1" parent="1">
          <mxGeometry x="485" y="441" width="80" height="30" as="geometry" />
        </mxCell>
        <mxCell id="HmjeX0NrFTV2RBuzeUnH-58" value="" style="shape=trapezoid;perimeter=trapezoidPerimeter;whiteSpace=wrap;html=1;fixedSize=1;rotation=90;" vertex="1" parent="1">
          <mxGeometry x="-232" y="447" width="70" height="30" as="geometry" />
        </mxCell>
        <mxCell id="HmjeX0NrFTV2RBuzeUnH-60" value="" style="edgeStyle=none;orthogonalLoop=1;jettySize=auto;html=1;rounded=0;" edge="1" parent="1">
          <mxGeometry width="100" relative="1" as="geometry">
            <mxPoint x="-182" y="462" as="sourcePoint" />
            <mxPoint x="-122" y="462" as="targetPoint" />
            <Array as="points" />
          </mxGeometry>
        </mxCell>
        <mxCell id="HmjeX0NrFTV2RBuzeUnH-61" value="/" style="text;html=1;align=center;verticalAlign=middle;resizable=0;points=[];autosize=1;strokeColor=none;fillColor=none;fontStyle=1" vertex="1" parent="1">
          <mxGeometry x="-175" y="448" width="30" height="30" as="geometry" />
        </mxCell>
        <mxCell id="HmjeX0NrFTV2RBuzeUnH-62" value="7" style="text;html=1;align=center;verticalAlign=middle;resizable=0;points=[];autosize=1;strokeColor=none;fillColor=none;" vertex="1" parent="1">
          <mxGeometry x="-175" y="433" width="30" height="30" as="geometry" />
        </mxCell>
        <mxCell id="HmjeX0NrFTV2RBuzeUnH-63" value="" style="edgeStyle=none;orthogonalLoop=1;jettySize=auto;html=1;rounded=0;" edge="1" parent="1">
          <mxGeometry width="100" relative="1" as="geometry">
            <mxPoint x="-272" y="443.5" as="sourcePoint" />
            <mxPoint x="-212" y="443.5" as="targetPoint" />
            <Array as="points" />
          </mxGeometry>
        </mxCell>
        <mxCell id="HmjeX0NrFTV2RBuzeUnH-64" value="/" style="text;html=1;align=center;verticalAlign=middle;resizable=0;points=[];autosize=1;strokeColor=none;fillColor=none;fontStyle=1" vertex="1" parent="1">
          <mxGeometry x="-265" y="429.5" width="30" height="30" as="geometry" />
        </mxCell>
        <mxCell id="HmjeX0NrFTV2RBuzeUnH-65" value="7" style="text;html=1;align=center;verticalAlign=middle;resizable=0;points=[];autosize=1;strokeColor=none;fillColor=none;" vertex="1" parent="1">
          <mxGeometry x="-265" y="414.5" width="30" height="30" as="geometry" />
        </mxCell>
        <mxCell id="HmjeX0NrFTV2RBuzeUnH-66" value="" style="edgeStyle=none;orthogonalLoop=1;jettySize=auto;html=1;rounded=0;" edge="1" parent="1">
          <mxGeometry width="100" relative="1" as="geometry">
            <mxPoint x="-272" y="480" as="sourcePoint" />
            <mxPoint x="-212" y="480" as="targetPoint" />
            <Array as="points" />
          </mxGeometry>
        </mxCell>
        <mxCell id="HmjeX0NrFTV2RBuzeUnH-67" value="/" style="text;html=1;align=center;verticalAlign=middle;resizable=0;points=[];autosize=1;strokeColor=none;fillColor=none;fontStyle=1" vertex="1" parent="1">
          <mxGeometry x="-265" y="466" width="30" height="30" as="geometry" />
        </mxCell>
        <mxCell id="HmjeX0NrFTV2RBuzeUnH-68" value="7" style="text;html=1;align=center;verticalAlign=middle;resizable=0;points=[];autosize=1;strokeColor=none;fillColor=none;" vertex="1" parent="1">
          <mxGeometry x="-265" y="451" width="30" height="30" as="geometry" />
        </mxCell>
        <mxCell id="HmjeX0NrFTV2RBuzeUnH-69" value="0" style="text;html=1;align=center;verticalAlign=middle;resizable=0;points=[];autosize=1;strokeColor=none;fillColor=none;" vertex="1" parent="1">
          <mxGeometry x="-222" y="429.5" width="30" height="30" as="geometry" />
        </mxCell>
        <mxCell id="HmjeX0NrFTV2RBuzeUnH-73" value="1" style="text;html=1;align=center;verticalAlign=middle;resizable=0;points=[];autosize=1;strokeColor=none;fillColor=none;" vertex="1" parent="1">
          <mxGeometry x="-222" y="466" width="30" height="30" as="geometry" />
        </mxCell>
        <mxCell id="HmjeX0NrFTV2RBuzeUnH-75" value="SEL" style="text;html=1;align=center;verticalAlign=middle;resizable=0;points=[];autosize=1;strokeColor=none;fillColor=none;" vertex="1" parent="1">
          <mxGeometry x="-225" y="520" width="50" height="30" as="geometry" />
        </mxCell>
        <mxCell id="HmjeX0NrFTV2RBuzeUnH-76" value="SAME" style="whiteSpace=wrap;html=1;" vertex="1" parent="1">
          <mxGeometry x="470" y="522" width="120" height="60" as="geometry" />
        </mxCell>
        <mxCell id="HmjeX0NrFTV2RBuzeUnH-77" value="Contador 7 bits para ir contando las condiciones de igualdad que se cumplen" style="text;html=1;align=center;verticalAlign=middle;resizable=0;points=[];autosize=1;strokeColor=none;fillColor=none;" vertex="1" parent="1">
          <mxGeometry x="315" y="490" width="430" height="30" as="geometry" />
        </mxCell>
        <mxCell id="HmjeX0NrFTV2RBuzeUnH-78" value="" style="edgeStyle=none;orthogonalLoop=1;jettySize=auto;html=1;rounded=0;" edge="1" parent="1">
          <mxGeometry width="100" relative="1" as="geometry">
            <mxPoint x="590" y="540.5" as="sourcePoint" />
            <mxPoint x="640" y="540.5" as="targetPoint" />
            <Array as="points" />
          </mxGeometry>
        </mxCell>
        <mxCell id="HmjeX0NrFTV2RBuzeUnH-79" value="/" style="text;html=1;align=center;verticalAlign=middle;resizable=0;points=[];autosize=1;strokeColor=none;fillColor=none;fontStyle=1" vertex="1" parent="1">
          <mxGeometry x="590" y="525.5" width="30" height="30" as="geometry" />
        </mxCell>
        <mxCell id="HmjeX0NrFTV2RBuzeUnH-80" value="7" style="text;html=1;align=center;verticalAlign=middle;resizable=0;points=[];autosize=1;strokeColor=none;fillColor=none;" vertex="1" parent="1">
          <mxGeometry x="590" y="510.5" width="30" height="30" as="geometry" />
        </mxCell>
        <mxCell id="HmjeX0NrFTV2RBuzeUnH-81" value="SAME" style="text;html=1;align=left;verticalAlign=middle;resizable=0;points=[];autosize=1;strokeColor=none;fillColor=none;" vertex="1" parent="1">
          <mxGeometry x="645" y="525.5" width="60" height="30" as="geometry" />
        </mxCell>
        <mxCell id="HmjeX0NrFTV2RBuzeUnH-82" value="" style="edgeStyle=none;orthogonalLoop=1;jettySize=auto;html=1;rounded=0;" edge="1" parent="1">
          <mxGeometry width="100" relative="1" as="geometry">
            <mxPoint x="590" y="572" as="sourcePoint" />
            <mxPoint x="640" y="572" as="targetPoint" />
            <Array as="points" />
          </mxGeometry>
        </mxCell>
        <mxCell id="HmjeX0NrFTV2RBuzeUnH-83" value="WIN" style="text;html=1;align=left;verticalAlign=middle;resizable=0;points=[];autosize=1;strokeColor=none;fillColor=none;" vertex="1" parent="1">
          <mxGeometry x="645" y="562" width="50" height="30" as="geometry" />
        </mxCell>
        <mxCell id="HmjeX0NrFTV2RBuzeUnH-84" value="" style="edgeStyle=none;orthogonalLoop=1;jettySize=auto;html=1;rounded=0;" edge="1" parent="1">
          <mxGeometry width="100" relative="1" as="geometry">
            <mxPoint x="420" y="534" as="sourcePoint" />
            <mxPoint x="470" y="534" as="targetPoint" />
            <Array as="points" />
          </mxGeometry>
        </mxCell>
        <mxCell id="HmjeX0NrFTV2RBuzeUnH-85" value="CLR_CONT" style="text;html=1;align=center;verticalAlign=middle;resizable=0;points=[];autosize=1;strokeColor=none;fillColor=none;" vertex="1" parent="1">
          <mxGeometry x="335" y="518" width="90" height="30" as="geometry" />
        </mxCell>
        <mxCell id="HmjeX0NrFTV2RBuzeUnH-86" value="" style="edgeStyle=none;orthogonalLoop=1;jettySize=auto;html=1;rounded=0;" edge="1" parent="1">
          <mxGeometry width="100" relative="1" as="geometry">
            <mxPoint x="420" y="557.5" as="sourcePoint" />
            <mxPoint x="470" y="557.5" as="targetPoint" />
            <Array as="points" />
          </mxGeometry>
        </mxCell>
        <mxCell id="HmjeX0NrFTV2RBuzeUnH-87" value="INCR_SAME" style="text;html=1;align=center;verticalAlign=middle;resizable=0;points=[];autosize=1;strokeColor=none;fillColor=none;" vertex="1" parent="1">
          <mxGeometry x="330" y="540.5" width="90" height="30" as="geometry" />
        </mxCell>
        <mxCell id="HmjeX0NrFTV2RBuzeUnH-88" value="" style="triangle;whiteSpace=wrap;html=1;" vertex="1" parent="1">
          <mxGeometry x="470" y="562" width="20" height="20" as="geometry" />
        </mxCell>
        <mxCell id="HmjeX0NrFTV2RBuzeUnH-89" value="" style="edgeStyle=none;orthogonalLoop=1;jettySize=auto;html=1;rounded=0;endArrow=none;endFill=0;" edge="1" parent="1">
          <mxGeometry width="100" relative="1" as="geometry">
            <mxPoint x="450" y="607" as="sourcePoint" />
            <mxPoint x="470" y="571.71" as="targetPoint" />
            <Array as="points">
              <mxPoint x="450" y="572" />
            </Array>
          </mxGeometry>
        </mxCell>
        <mxCell id="HmjeX0NrFTV2RBuzeUnH-90" value="clk" style="text;html=1;align=center;verticalAlign=middle;resizable=0;points=[];autosize=1;strokeColor=none;fillColor=none;" vertex="1" parent="1">
          <mxGeometry x="410" y="577" width="40" height="30" as="geometry" />
        </mxCell>
        <mxCell id="HmjeX0NrFTV2RBuzeUnH-91" style="edgeStyle=orthogonalEdgeStyle;rounded=0;orthogonalLoop=1;jettySize=auto;html=1;startArrow=none;startFill=0;endArrow=none;endFill=0;" edge="1" parent="1" source="HmjeX0NrFTV2RBuzeUnH-92">
          <mxGeometry relative="1" as="geometry">
            <mxPoint x="530" y="632" as="targetPoint" />
          </mxGeometry>
        </mxCell>
        <mxCell id="HmjeX0NrFTV2RBuzeUnH-92" value="" style="ellipse;whiteSpace=wrap;html=1;" vertex="1" parent="1">
          <mxGeometry x="525" y="582" width="10" height="10" as="geometry" />
        </mxCell>
        <mxCell id="HmjeX0NrFTV2RBuzeUnH-93" value="RESET_L*" style="text;html=1;align=center;verticalAlign=middle;resizable=0;points=[];autosize=1;strokeColor=none;fillColor=none;" vertex="1" parent="1">
          <mxGeometry x="495" y="630" width="80" height="30" as="geometry" />
        </mxCell>
        <mxCell id="HmjeX0NrFTV2RBuzeUnH-94" value="INCR_SAME &amp;lt;= &#39;1&#39; when (INCR_IF_SAME and data_out = sol_out) else &#39;0&#39;;" style="text;html=1;align=center;verticalAlign=middle;resizable=0;points=[];autosize=1;strokeColor=none;fillColor=none;" vertex="1" parent="1">
          <mxGeometry x="150" y="660" width="430" height="30" as="geometry" />
        </mxCell>
        <mxCell id="HmjeX0NrFTV2RBuzeUnH-95" value="" style="edgeStyle=none;orthogonalLoop=1;jettySize=auto;html=1;rounded=0;" edge="1" parent="1">
          <mxGeometry width="100" relative="1" as="geometry">
            <mxPoint x="50" y="-401.2" as="sourcePoint" />
            <mxPoint x="100" y="-401.2" as="targetPoint" />
            <Array as="points" />
          </mxGeometry>
        </mxCell>
        <mxCell id="HmjeX0NrFTV2RBuzeUnH-96" value="addr_int" style="text;html=1;align=left;verticalAlign=middle;resizable=0;points=[];autosize=1;strokeColor=none;fillColor=none;" vertex="1" parent="1">
          <mxGeometry x="104" y="-415" width="70" height="30" as="geometry" />
        </mxCell>
        <mxCell id="HmjeX0NrFTV2RBuzeUnH-97" value="" style="edgeStyle=none;orthogonalLoop=1;jettySize=auto;html=1;rounded=0;" edge="1" parent="1">
          <mxGeometry width="100" relative="1" as="geometry">
            <mxPoint x="-200" y="-435.4" as="sourcePoint" />
            <mxPoint x="-150" y="-435.4" as="targetPoint" />
            <Array as="points" />
          </mxGeometry>
        </mxCell>
        <mxCell id="HmjeX0NrFTV2RBuzeUnH-98" value="sol_out" style="text;html=1;align=right;verticalAlign=middle;resizable=0;points=[];autosize=1;strokeColor=none;fillColor=none;" vertex="1" parent="1">
          <mxGeometry x="-265" y="-454" width="60" height="30" as="geometry" />
        </mxCell>
        <mxCell id="HmjeX0NrFTV2RBuzeUnH-99" value="" style="edgeStyle=none;orthogonalLoop=1;jettySize=auto;html=1;rounded=0;" edge="1" parent="1">
          <mxGeometry width="100" relative="1" as="geometry">
            <mxPoint x="50" y="-376.2" as="sourcePoint" />
            <mxPoint x="100" y="-376.2" as="targetPoint" />
            <Array as="points" />
          </mxGeometry>
        </mxCell>
        <mxCell id="HmjeX0NrFTV2RBuzeUnH-100" value="rd_sol" style="text;html=1;align=left;verticalAlign=middle;resizable=0;points=[];autosize=1;strokeColor=none;fillColor=none;" vertex="1" parent="1">
          <mxGeometry x="104" y="-390" width="60" height="30" as="geometry" />
        </mxCell>
        <mxCell id="HmjeX0NrFTV2RBuzeUnH-101" style="edgeStyle=orthogonalEdgeStyle;rounded=0;orthogonalLoop=1;jettySize=auto;html=1;startArrow=none;startFill=0;endArrow=none;endFill=0;" edge="1" source="HmjeX0NrFTV2RBuzeUnH-102" parent="1">
          <mxGeometry relative="1" as="geometry">
            <mxPoint x="-52" y="-320" as="targetPoint" />
          </mxGeometry>
        </mxCell>
        <mxCell id="HmjeX0NrFTV2RBuzeUnH-102" value="" style="ellipse;whiteSpace=wrap;html=1;" vertex="1" parent="1">
          <mxGeometry x="-57" y="-370" width="10" height="10" as="geometry" />
        </mxCell>
        <mxCell id="HmjeX0NrFTV2RBuzeUnH-103" value="RESET_L*" style="text;html=1;align=center;verticalAlign=middle;resizable=0;points=[];autosize=1;strokeColor=none;fillColor=none;" vertex="1" parent="1">
          <mxGeometry x="-87" y="-322" width="80" height="30" as="geometry" />
        </mxCell>
        <mxCell id="HmjeX0NrFTV2RBuzeUnH-105" value="/" style="text;html=1;align=center;verticalAlign=middle;resizable=0;points=[];autosize=1;strokeColor=none;fillColor=none;fontStyle=0;fontSize=16;" vertex="1" parent="1">
          <mxGeometry x="52" y="-415" width="30" height="30" as="geometry" />
        </mxCell>
        <mxCell id="HmjeX0NrFTV2RBuzeUnH-106" value="7" style="text;html=1;align=center;verticalAlign=middle;resizable=0;points=[];autosize=1;strokeColor=none;fillColor=none;" vertex="1" parent="1">
          <mxGeometry x="52" y="-430" width="30" height="30" as="geometry" />
        </mxCell>
        <mxCell id="HmjeX0NrFTV2RBuzeUnH-107" value="RCURSORX" style="rounded=0;whiteSpace=wrap;html=1;" vertex="1" parent="1">
          <mxGeometry x="-183" y="640" width="153" height="89" as="geometry" />
        </mxCell>
        <mxCell id="HmjeX0NrFTV2RBuzeUnH-108" value="" style="triangle;whiteSpace=wrap;html=1;" vertex="1" parent="1">
          <mxGeometry x="-183" y="709" width="10" height="20" as="geometry" />
        </mxCell>
        <mxCell id="HmjeX0NrFTV2RBuzeUnH-109" value="" style="edgeStyle=none;orthogonalLoop=1;jettySize=auto;html=1;rounded=0;" edge="1" parent="1">
          <mxGeometry width="100" relative="1" as="geometry">
            <mxPoint x="-235" y="658.5" as="sourcePoint" />
            <mxPoint x="-185" y="658.5" as="targetPoint" />
            <Array as="points" />
          </mxGeometry>
        </mxCell>
        <mxCell id="HmjeX0NrFTV2RBuzeUnH-110" value="" style="edgeStyle=none;orthogonalLoop=1;jettySize=auto;html=1;rounded=0;" edge="1" parent="1">
          <mxGeometry width="100" relative="1" as="geometry">
            <mxPoint x="-235" y="683.5" as="sourcePoint" />
            <mxPoint x="-185" y="683" as="targetPoint" />
            <Array as="points" />
          </mxGeometry>
        </mxCell>
        <mxCell id="HmjeX0NrFTV2RBuzeUnH-111" value="LD_CURSOR" style="text;html=1;align=center;verticalAlign=middle;resizable=0;points=[];autosize=1;strokeColor=none;fillColor=none;" vertex="1" parent="1">
          <mxGeometry x="-330" y="669.5" width="100" height="30" as="geometry" />
        </mxCell>
        <mxCell id="HmjeX0NrFTV2RBuzeUnH-112" value="CURSORX" style="text;html=1;align=right;verticalAlign=middle;resizable=0;points=[];autosize=1;strokeColor=none;fillColor=none;" vertex="1" parent="1">
          <mxGeometry x="-325" y="641.5" width="80" height="30" as="geometry" />
        </mxCell>
        <mxCell id="HmjeX0NrFTV2RBuzeUnH-113" value="" style="edgeStyle=none;orthogonalLoop=1;jettySize=auto;html=1;rounded=0;" edge="1" parent="1">
          <mxGeometry width="100" relative="1" as="geometry">
            <mxPoint x="-30" y="671.5" as="sourcePoint" />
            <mxPoint x="20" y="671.5" as="targetPoint" />
            <Array as="points" />
          </mxGeometry>
        </mxCell>
        <mxCell id="HmjeX0NrFTV2RBuzeUnH-114" value="&lt;b&gt;/&lt;/b&gt;" style="text;html=1;align=center;verticalAlign=middle;resizable=0;points=[];autosize=1;strokeColor=none;fillColor=none;" vertex="1" parent="1">
          <mxGeometry x="-30" y="656.5" width="30" height="30" as="geometry" />
        </mxCell>
        <mxCell id="HmjeX0NrFTV2RBuzeUnH-115" value="4" style="text;html=1;align=center;verticalAlign=middle;resizable=0;points=[];autosize=1;strokeColor=none;fillColor=none;" vertex="1" parent="1">
          <mxGeometry x="-30" y="641.5" width="30" height="30" as="geometry" />
        </mxCell>
        <mxCell id="HmjeX0NrFTV2RBuzeUnH-116" value="" style="edgeStyle=none;orthogonalLoop=1;jettySize=auto;html=1;rounded=0;endArrow=none;endFill=0;" edge="1" parent="1">
          <mxGeometry width="100" relative="1" as="geometry">
            <mxPoint x="-223" y="749" as="sourcePoint" />
            <mxPoint x="-183" y="719" as="targetPoint" />
            <Array as="points">
              <mxPoint x="-223" y="719" />
            </Array>
          </mxGeometry>
        </mxCell>
        <mxCell id="HmjeX0NrFTV2RBuzeUnH-117" value="clk" style="text;html=1;align=center;verticalAlign=middle;resizable=0;points=[];autosize=1;strokeColor=none;fillColor=none;" vertex="1" parent="1">
          <mxGeometry x="-259" y="719" width="40" height="30" as="geometry" />
        </mxCell>
        <mxCell id="HmjeX0NrFTV2RBuzeUnH-119" value="RCURSORY" style="rounded=0;whiteSpace=wrap;html=1;" vertex="1" parent="1">
          <mxGeometry x="-185" y="770" width="153" height="89" as="geometry" />
        </mxCell>
        <mxCell id="HmjeX0NrFTV2RBuzeUnH-120" value="" style="triangle;whiteSpace=wrap;html=1;" vertex="1" parent="1">
          <mxGeometry x="-185" y="839" width="10" height="20" as="geometry" />
        </mxCell>
        <mxCell id="HmjeX0NrFTV2RBuzeUnH-121" value="" style="edgeStyle=none;orthogonalLoop=1;jettySize=auto;html=1;rounded=0;" edge="1" parent="1">
          <mxGeometry width="100" relative="1" as="geometry">
            <mxPoint x="-237" y="788.5" as="sourcePoint" />
            <mxPoint x="-187" y="788.5" as="targetPoint" />
            <Array as="points" />
          </mxGeometry>
        </mxCell>
        <mxCell id="HmjeX0NrFTV2RBuzeUnH-122" value="" style="edgeStyle=none;orthogonalLoop=1;jettySize=auto;html=1;rounded=0;" edge="1" parent="1">
          <mxGeometry width="100" relative="1" as="geometry">
            <mxPoint x="-237" y="813.5" as="sourcePoint" />
            <mxPoint x="-187" y="813" as="targetPoint" />
            <Array as="points" />
          </mxGeometry>
        </mxCell>
        <mxCell id="HmjeX0NrFTV2RBuzeUnH-123" value="LD_CURSOR" style="text;html=1;align=center;verticalAlign=middle;resizable=0;points=[];autosize=1;strokeColor=none;fillColor=none;" vertex="1" parent="1">
          <mxGeometry x="-332" y="799.5" width="100" height="30" as="geometry" />
        </mxCell>
        <mxCell id="HmjeX0NrFTV2RBuzeUnH-124" value="CURSORY" style="text;html=1;align=right;verticalAlign=middle;resizable=0;points=[];autosize=1;strokeColor=none;fillColor=none;" vertex="1" parent="1">
          <mxGeometry x="-327" y="771.5" width="80" height="30" as="geometry" />
        </mxCell>
        <mxCell id="HmjeX0NrFTV2RBuzeUnH-125" value="" style="edgeStyle=none;orthogonalLoop=1;jettySize=auto;html=1;rounded=0;" edge="1" parent="1">
          <mxGeometry width="100" relative="1" as="geometry">
            <mxPoint x="-32" y="801.5" as="sourcePoint" />
            <mxPoint x="18" y="801.5" as="targetPoint" />
            <Array as="points" />
          </mxGeometry>
        </mxCell>
        <mxCell id="HmjeX0NrFTV2RBuzeUnH-126" value="&lt;b&gt;/&lt;/b&gt;" style="text;html=1;align=center;verticalAlign=middle;resizable=0;points=[];autosize=1;strokeColor=none;fillColor=none;" vertex="1" parent="1">
          <mxGeometry x="-32" y="786.5" width="30" height="30" as="geometry" />
        </mxCell>
        <mxCell id="HmjeX0NrFTV2RBuzeUnH-127" value="4" style="text;html=1;align=center;verticalAlign=middle;resizable=0;points=[];autosize=1;strokeColor=none;fillColor=none;" vertex="1" parent="1">
          <mxGeometry x="-32" y="771.5" width="30" height="30" as="geometry" />
        </mxCell>
        <mxCell id="HmjeX0NrFTV2RBuzeUnH-128" value="" style="edgeStyle=none;orthogonalLoop=1;jettySize=auto;html=1;rounded=0;endArrow=none;endFill=0;" edge="1" parent="1">
          <mxGeometry width="100" relative="1" as="geometry">
            <mxPoint x="-225" y="879" as="sourcePoint" />
            <mxPoint x="-185" y="849" as="targetPoint" />
            <Array as="points">
              <mxPoint x="-225" y="849" />
            </Array>
          </mxGeometry>
        </mxCell>
        <mxCell id="HmjeX0NrFTV2RBuzeUnH-129" value="clk" style="text;html=1;align=center;verticalAlign=middle;resizable=0;points=[];autosize=1;strokeColor=none;fillColor=none;" vertex="1" parent="1">
          <mxGeometry x="-261" y="849" width="40" height="30" as="geometry" />
        </mxCell>
        <mxCell id="HmjeX0NrFTV2RBuzeUnH-130" value="&lt;b&gt;/&lt;/b&gt;" style="text;html=1;align=center;verticalAlign=middle;resizable=0;points=[];autosize=1;strokeColor=none;fillColor=none;" vertex="1" parent="1">
          <mxGeometry x="-231" y="775" width="30" height="30" as="geometry" />
        </mxCell>
        <mxCell id="HmjeX0NrFTV2RBuzeUnH-131" value="4" style="text;html=1;align=center;verticalAlign=middle;resizable=0;points=[];autosize=1;strokeColor=none;fillColor=none;" vertex="1" parent="1">
          <mxGeometry x="-231" y="760" width="30" height="30" as="geometry" />
        </mxCell>
        <mxCell id="HmjeX0NrFTV2RBuzeUnH-132" value="&lt;b&gt;/&lt;/b&gt;" style="text;html=1;align=center;verticalAlign=middle;resizable=0;points=[];autosize=1;strokeColor=none;fillColor=none;" vertex="1" parent="1">
          <mxGeometry x="-224" y="644" width="30" height="30" as="geometry" />
        </mxCell>
        <mxCell id="HmjeX0NrFTV2RBuzeUnH-133" value="4" style="text;html=1;align=center;verticalAlign=middle;resizable=0;points=[];autosize=1;strokeColor=none;fillColor=none;" vertex="1" parent="1">
          <mxGeometry x="-224" y="629" width="30" height="30" as="geometry" />
        </mxCell>
        <mxCell id="HmjeX0NrFTV2RBuzeUnH-134" value="MUX_dir" style="text;html=1;align=right;verticalAlign=middle;resizable=0;points=[];autosize=1;strokeColor=none;fillColor=none;" vertex="1" parent="1">
          <mxGeometry x="-130" y="448" width="70" height="30" as="geometry" />
        </mxCell>
        <mxCell id="HmjeX0NrFTV2RBuzeUnH-135" value="dir" style="text;html=1;align=left;verticalAlign=middle;resizable=0;points=[];autosize=1;strokeColor=none;fillColor=none;" vertex="1" parent="1">
          <mxGeometry x="-305" y="425" width="40" height="30" as="geometry" />
        </mxCell>
        <mxCell id="HmjeX0NrFTV2RBuzeUnH-136" value="cont_dir" style="text;html=1;align=left;verticalAlign=middle;resizable=0;points=[];autosize=1;strokeColor=none;fillColor=none;" vertex="1" parent="1">
          <mxGeometry x="-322" y="463" width="70" height="30" as="geometry" />
        </mxCell>
      </root>
    </mxGraphModel>
  </diagram>
</mxfile>
